# Blender v2.91.0 Alpha OBJ File: 'untitled.blend'
# www.blender.org
mtllib TestRoom.mtl
o Floor_Plane
v -8.024875 0.000000 2.972148
v 2.944765 0.000000 2.972148
v -8.024875 0.000000 -2.972148
v 2.944765 0.000000 -2.972148
vt 0.000000 0.000000
vt 1.000000 0.000000
vt 1.000000 1.000000
vt 0.000000 1.000000
vn 0.0000 1.0000 0.0000
usemtl None
s off
f 1/1/1 2/2/1 4/3/1 3/4/1
o Wall_Cube.001
v -2.972150 -0.000000 -2.498983
v -2.972150 2.000000 -2.498983
v -2.972150 -0.000000 -3.005077
v -2.972150 2.000000 -3.005077
v 2.972150 -0.000000 -2.498983
v 2.972150 2.000000 -2.498983
v 2.972150 -0.000000 -3.005077
v 2.972150 2.000000 -3.005077
vt 0.375000 0.000000
vt 0.625000 0.000000
vt 0.625000 0.250000
vt 0.375000 0.250000
vt 0.625000 0.500000
vt 0.375000 0.500000
vt 0.625000 0.750000
vt 0.375000 0.750000
vt 0.625000 1.000000
vt 0.375000 1.000000
vt 0.125000 0.500000
vt 0.125000 0.750000
vt 0.875000 0.500000
vt 0.875000 0.750000
vn -1.0000 0.0000 0.0000
vn 0.0000 0.0000 -1.0000
vn 1.0000 0.0000 0.0000
vn 0.0000 0.0000 1.0000
vn 0.0000 -1.0000 0.0000
vn 0.0000 1.0000 0.0000
usemtl None
s off
f 5/5/2 6/6/2 8/7/2 7/8/2
f 7/8/3 8/7/3 12/9/3 11/10/3
f 11/10/4 12/9/4 10/11/4 9/12/4
f 9/12/5 10/11/5 6/13/5 5/14/5
f 7/15/6 11/10/6 9/12/6 5/16/6
f 12/9/7 8/17/7 6/18/7 10/11/7
o Wall.001_Cube.002
v -2.972150 -0.000000 2.968422
v -2.972150 2.000000 2.968422
v -2.972150 -0.000000 2.462327
v -2.972150 2.000000 2.462327
v 2.972150 -0.000000 2.968422
v 2.972150 2.000000 2.968422
v 2.972150 -0.000000 2.462327
v 2.972150 2.000000 2.462327
vt 0.375000 0.000000
vt 0.625000 0.000000
vt 0.625000 0.250000
vt 0.375000 0.250000
vt 0.625000 0.500000
vt 0.375000 0.500000
vt 0.625000 0.750000
vt 0.375000 0.750000
vt 0.625000 1.000000
vt 0.375000 1.000000
vt 0.125000 0.500000
vt 0.125000 0.750000
vt 0.875000 0.500000
vt 0.875000 0.750000
vn -1.0000 0.0000 0.0000
vn 0.0000 0.0000 -1.0000
vn 1.0000 0.0000 0.0000
vn 0.0000 0.0000 1.0000
vn 0.0000 -1.0000 0.0000
vn 0.0000 1.0000 0.0000
usemtl None
s off
f 13/19/8 14/20/8 16/21/8 15/22/8
f 15/22/9 16/21/9 20/23/9 19/24/9
f 19/24/10 20/23/10 18/25/10 17/26/10
f 17/26/11 18/25/11 14/27/11 13/28/11
f 15/29/12 19/24/12 17/26/12 13/30/12
f 20/23/13 16/31/13 14/32/13 18/25/13
o Wall.002_Cube.003
v 2.987335 0.741518 1.431111
v 2.987335 1.365135 1.431111
v 2.481240 0.632934 1.431111
v 2.481240 1.462349 1.431111
v 2.987335 0.741518 -1.431111
v 2.987335 1.365135 -1.431111
v 2.481240 0.632934 -1.431111
v 2.481240 1.462349 -1.431111
v 2.987335 -0.000000 2.972150
v 2.987335 2.000000 2.972150
v 2.481240 2.000000 2.972150
v 2.481240 -0.000000 2.972150
v 2.481240 -0.000000 -2.972150
v 2.481240 2.000000 -2.972150
v 2.987335 2.000000 -2.972150
v 2.987335 -0.000000 -2.972150
vt 0.375000 0.000000
vt 0.625000 0.000000
vt 0.625000 0.250000
vt 0.375000 0.250000
vt 0.375000 0.500000
vt 0.625000 0.500000
vt 0.625000 0.750000
vt 0.375000 0.750000
vt 0.125000 0.500000
vt 0.125000 0.750000
vt 0.875000 0.500000
vt 0.875000 0.750000
vt 0.439812 0.935188
vt 0.560188 0.935188
vt 0.625000 1.000000
vt 0.375000 1.000000
vt 0.560188 0.314812
vt 0.439812 0.314812
vt 0.439812 0.435188
vt 0.560188 0.435188
vt 0.560188 0.814812
vt 0.439812 0.814812
vn 0.0000 0.0000 1.0000
vn 0.0000 0.0000 -1.0000
vn 0.0000 -1.0000 0.0000
vn 0.0000 1.0000 0.0000
vn 1.0000 0.0000 0.0000
vn -1.0000 0.0000 0.0000
vn -0.2098 0.9777 0.0000
vn -0.1886 -0.9820 0.0000
usemtl None
s off
f 29/33/14 30/34/14 31/35/14 32/36/14
f 33/37/15 34/38/15 35/39/15 36/40/15
f 32/41/16 33/37/16 36/40/16 29/42/16
f 34/38/17 31/43/17 30/44/17 35/39/17
f 21/45/18 22/46/18 30/47/18 29/48/18
f 24/49/19 23/50/19 32/36/19 31/35/19
f 23/50/19 27/51/19 33/37/19 32/36/19
f 28/52/19 24/49/19 31/35/19 34/38/19
f 27/51/19 28/52/19 34/38/19 33/37/19
f 26/53/18 25/54/18 36/40/18 35/39/18
f 25/54/18 21/45/18 29/48/18 36/40/18
f 22/46/18 26/53/18 35/39/18 30/47/18
f 27/51/20 23/50/20 21/45/20 25/54/20
f 27/51/14 25/54/14 26/53/14 28/52/14
f 21/45/15 23/50/15 24/49/15 22/46/15
f 24/49/21 28/52/21 26/53/21 22/46/21
o Wall.003_Cube.004
v -7.512791 -0.000000 2.972150
v -7.512791 2.000000 2.972150
v -8.018886 -0.000000 2.972150
v -8.018886 2.000000 2.972150
v -7.512792 -0.000000 -2.972150
v -7.512792 2.000000 -2.972150
v -8.018886 -0.000000 -2.972150
v -8.018886 2.000000 -2.972150
vt 0.375000 0.000000
vt 0.625000 0.000000
vt 0.625000 0.250000
vt 0.375000 0.250000
vt 0.625000 0.500000
vt 0.375000 0.500000
vt 0.625000 0.750000
vt 0.375000 0.750000
vt 0.625000 1.000000
vt 0.375000 1.000000
vt 0.125000 0.500000
vt 0.125000 0.750000
vt 0.875000 0.500000
vt 0.875000 0.750000
vn 0.0000 0.0000 1.0000
vn -1.0000 0.0000 0.0000
vn 0.0000 0.0000 -1.0000
vn 1.0000 0.0000 -0.0000
vn 0.0000 -1.0000 0.0000
vn 0.0000 1.0000 0.0000
usemtl None
s off
f 37/55/22 38/56/22 40/57/22 39/58/22
f 39/58/23 40/57/23 44/59/23 43/60/23
f 43/60/24 44/59/24 42/61/24 41/62/24
f 41/62/25 42/61/25 38/63/25 37/64/25
f 39/65/26 43/60/26 41/62/26 37/66/26
f 44/59/27 40/67/27 38/68/27 42/61/27
o Wall.004_Cube.005
v -7.986280 -0.000000 2.968422
v -7.986280 2.000000 2.968422
v -7.986280 -0.000000 2.462327
v -7.986280 2.000000 2.462327
v -2.972150 -0.000000 2.968422
v -2.972150 2.000000 2.968422
v -2.972150 -0.000000 2.462327
v -2.972150 2.000000 2.462327
vt 0.375000 0.000000
vt 0.625000 0.000000
vt 0.625000 0.250000
vt 0.375000 0.250000
vt 0.625000 0.500000
vt 0.375000 0.500000
vt 0.625000 0.750000
vt 0.375000 0.750000
vt 0.625000 1.000000
vt 0.375000 1.000000
vt 0.125000 0.500000
vt 0.125000 0.750000
vt 0.875000 0.500000
vt 0.875000 0.750000
vn -1.0000 0.0000 0.0000
vn 0.0000 0.0000 -1.0000
vn 1.0000 0.0000 0.0000
vn 0.0000 0.0000 1.0000
vn 0.0000 -1.0000 0.0000
vn 0.0000 1.0000 0.0000
usemtl None
s off
f 45/69/28 46/70/28 48/71/28 47/72/28
f 47/72/29 48/71/29 52/73/29 51/74/29
f 51/74/30 52/73/30 50/75/30 49/76/30
f 49/76/31 50/75/31 46/77/31 45/78/31
f 47/79/32 51/74/32 49/76/32 45/80/32
f 52/73/33 48/81/33 46/82/33 50/75/33
o Wall.005_Cube.006
v -7.970353 -0.000220 -2.498733
v -7.970353 1.999780 -2.498733
v -7.970353 -0.000220 -3.004827
v -7.970353 1.999780 -3.004827
v -2.956223 -0.000220 -2.498733
v -2.956223 1.999780 -2.498733
v -2.956223 -0.000220 -3.004827
v -2.956223 1.999780 -3.004827
v -4.961538 1.665019 -2.498733
v -4.961538 1.665019 -3.004827
v -6.040751 1.665019 -2.498733
v -6.040751 1.665019 -3.004827
v -4.501144 -0.000220 -3.004827
v -4.501144 -0.000220 -2.498733
v -4.501144 1.204626 -2.498733
v -4.501144 1.204626 -3.004827
v -6.501144 -0.000220 -2.498733
v -6.501144 -0.000220 -3.004827
v -6.501144 1.204626 -2.498733
v -6.501144 1.204626 -3.004827
vt 0.375000 0.000000
vt 0.625000 0.000000
vt 0.625000 0.250000
vt 0.375000 0.250000
vt 0.375000 0.500000
vt 0.625000 0.500000
vt 0.625000 0.750000
vt 0.375000 0.750000
vt 0.875000 0.500000
vt 0.875000 0.750000
vt 0.682549 0.696593
vt 0.817451 0.696593
vt 0.817451 0.633331
vt 0.682549 0.633331
vt 0.416845 0.633331
vt 0.416845 0.696593
vt 0.567451 0.696593
vt 0.567451 0.633331
vt 0.416845 0.116669
vt 0.567451 0.116669
vt 0.567451 0.053407
vt 0.416845 0.053407
vt 0.625000 0.053407
vt 0.625000 0.116669
vt 0.375000 0.323253
vt 0.375000 0.422972
vt 0.525606 0.422972
vt 0.583155 0.400017
vt 0.583155 0.346208
vt 0.525606 0.323253
vt 0.525606 0.827028
vt 0.375000 0.827028
vt 0.625000 1.000000
vt 0.375000 1.000000
vt 0.375000 0.926747
vt 0.525606 0.926746
vt 0.583155 0.903792
vt 0.583155 0.849983
vt 0.297972 0.750000
vt 0.297972 0.500000
vt 0.125000 0.750000
vt 0.125000 0.500000
vt 0.198253 0.500000
vt 0.198253 0.750000
vn -1.0000 0.0000 0.0000
vn 1.0000 0.0000 0.0000
vn 0.0000 1.0000 0.0000
vn 0.0000 -1.0000 0.0000
vn 0.7071 -0.7071 0.0000
vn -0.7071 -0.7071 0.0000
vn 0.0000 0.0000 -1.0000
vn 0.0000 0.0000 1.0000
usemtl None
s off
f 53/83/34 54/84/34 56/85/34 55/86/34
f 59/87/35 60/88/35 58/89/35 57/90/35
f 60/88/36 56/91/36 54/92/36 58/89/36
f 61/93/37 63/94/37 64/95/37 62/96/37
f 65/97/34 66/98/34 67/99/34 68/100/34
f 70/101/35 72/102/35 71/103/35 69/104/35
f 63/105/38 71/103/38 72/102/38 64/106/38
f 61/93/39 62/96/39 68/100/39 67/99/39
f 70/107/40 55/86/40 56/85/40 60/88/40 59/87/40 65/108/40 68/109/40 62/110/40 64/111/40 72/112/40
f 67/113/41 66/114/41 57/90/41 58/89/41 54/115/41 53/116/41 69/117/41 71/118/41 63/119/41 61/120/41
f 59/87/37 57/90/37 66/121/37 65/122/37
f 53/123/37 55/124/37 70/125/37 69/126/37
o Roof.001_Plane.002
v -7.514170 1.998080 2.480649
v 2.481350 1.998080 2.480649
v -7.514170 1.998080 -2.480649
v 2.481350 1.998080 -2.480649
v -7.514170 2.728775 -1.783289
v -7.514170 2.728775 -0.594430
v -7.514170 2.728775 0.594430
v -7.514170 2.728775 1.783289
v -5.830947 1.998080 2.480649
v -3.637019 1.998080 2.480649
v -1.443091 1.998080 2.480649
v 0.750837 1.998080 2.480649
v 2.481350 2.728775 1.783289
v 2.481350 2.728775 0.594430
v 2.481350 2.728775 -0.594430
v 2.481350 2.728775 -1.783289
v 0.750837 1.998080 -2.480649
v -1.443091 1.998080 -2.480649
v -3.637019 1.998080 -2.480649
v -5.830947 1.998080 -2.480649
v -5.830947 2.728775 1.783289
v -3.637019 2.728775 1.783289
v -1.443091 2.728775 1.783289
v 0.750837 2.728775 1.783289
v -5.830947 2.728775 0.594430
v -3.637019 2.728775 0.594430
v -1.443091 2.728775 0.594430
v 0.750837 2.728775 0.594430
v -5.830947 2.728775 -0.594430
v -3.637019 2.728775 -0.594430
v -1.443091 2.728775 -0.594430
v 0.750837 2.728775 -0.594430
v -5.830947 2.728775 -1.783289
v -3.637019 2.728775 -1.783289
v -1.443091 2.728775 -1.783289
v 0.750837 2.728775 -1.783289
v 2.481350 1.274525 2.480649
v 2.481350 1.274525 -2.480649
v 2.481350 2.005219 1.783289
v 2.481350 2.005219 0.594430
v 2.481350 2.005219 -0.594430
v 2.481350 2.005219 -1.783289
v -7.514170 1.259155 2.480649
v -7.514170 1.259155 -2.480649
v -7.514170 1.989849 -1.783289
v -7.514170 1.989849 -0.594430
v -7.514170 1.989849 0.594430
v -7.514170 1.989849 1.783289
v 2.481350 0.918854 2.480649
v 2.481350 0.918854 -2.480649
v 2.481350 1.649548 1.783289
v 2.481350 1.649548 0.594430
v 2.481350 1.649548 -0.594430
v 2.481350 1.649548 -1.783289
vt 0.800000 0.800000
vt 0.800000 1.000000
vt 1.000000 1.000000
vt 1.000000 0.800000
vt 0.800000 0.000000
vt 0.800000 0.200000
vt 1.000000 0.200000
vt 1.000000 0.000000
vt 0.800000 0.400000
vt 1.000000 0.400000
vt 0.800000 0.600000
vt 1.000000 0.600000
vt 0.000000 0.000000
vt 0.000000 0.200000
vt 0.200000 0.200000
vt 0.200000 0.000000
vt 0.400000 0.200000
vt 0.400000 0.000000
vt 0.600000 0.200000
vt 0.600000 0.000000
vt 0.000000 0.400000
vt 0.200000 0.400000
vt 0.400000 0.400000
vt 0.600000 0.400000
vt 0.000000 0.600000
vt 0.200000 0.600000
vt 0.400000 0.600000
vt 0.600000 0.600000
vt 0.000000 0.800000
vt 0.200000 0.800000
vt 0.400000 0.800000
vt 0.600000 0.800000
vt 0.000000 1.000000
vt 0.200000 1.000000
vt 0.400000 1.000000
vt 0.600000 1.000000
vt 1.000000 0.800000
vt 1.000000 0.600000
vt 1.000000 1.000000
vt 1.000000 0.400000
vt 1.000000 0.200000
vt 1.000000 0.000000
vt 0.000000 0.600000
vt 0.000000 0.800000
vt 1.000000 0.600000
vt 1.000000 0.400000
vt 1.000000 1.000000
vt 1.000000 0.800000
vt 0.000000 0.400000
vt 1.000000 0.200000
vt 1.000000 0.000000
vt 0.000000 0.000000
vt 0.000000 0.200000
vt 0.000000 1.000000
vn 0.0000 -0.6904 0.7234
vn 0.0000 -0.6904 -0.7234
vn 0.0000 -1.0000 0.0000
vn -1.0000 0.0000 0.0000
vn 1.0000 0.0000 0.0000
usemtl None
s off
f 108/127/42 89/128/42 76/129/42 88/130/42
f 84/131/43 96/132/43 85/133/43 74/134/43
f 96/132/44 100/135/44 86/136/44 85/133/44
f 100/135/44 104/137/44 87/138/44 86/136/44
f 104/137/44 108/127/44 88/130/44 87/138/44
f 73/139/43 80/140/43 93/141/43 81/142/43
f 81/142/43 93/141/43 94/143/43 82/144/43
f 82/144/43 94/143/43 95/145/43 83/146/43
f 83/146/43 95/145/43 96/132/43 84/131/43
f 80/140/44 79/147/44 97/148/44 93/141/44
f 93/141/44 97/148/44 98/149/44 94/143/44
f 94/143/44 98/149/44 99/150/44 95/145/44
f 95/145/44 99/150/44 100/135/44 96/132/44
f 79/147/44 78/151/44 101/152/44 97/148/44
f 97/148/44 101/152/44 102/153/44 98/149/44
f 98/149/44 102/153/44 103/154/44 99/150/44
f 99/150/44 103/154/44 104/137/44 100/135/44
f 78/151/44 77/155/44 105/156/44 101/152/44
f 101/152/44 105/156/44 106/157/44 102/153/44
f 102/153/44 106/157/44 107/158/44 103/154/44
f 103/154/44 107/158/44 108/127/44 104/137/44
f 77/155/42 75/159/42 92/160/42 105/156/42
f 105/156/42 92/160/42 91/161/42 106/157/42
f 106/157/42 91/161/42 90/162/42 107/158/42
f 107/158/42 90/162/42 89/128/42 108/127/42
f 87/138/45 88/130/45 114/163/45 113/164/45
f 88/130/45 76/129/45 110/165/45 114/163/45
f 85/133/45 86/136/45 112/166/45 111/167/45
f 86/136/45 87/138/45 113/164/45 112/166/45
f 74/134/45 85/133/45 111/167/45 109/168/45
f 77/155/46 78/151/46 118/169/46 117/170/46
f 112/166/45 113/164/45 125/171/45 124/172/45
f 114/163/45 110/165/45 122/173/45 126/174/45
f 78/151/46 79/147/46 119/175/46 118/169/46
f 113/164/45 114/163/45 126/174/45 125/171/45
f 109/168/45 111/167/45 123/176/45 121/177/45
f 80/140/46 73/139/46 115/178/46 120/179/46
f 79/147/46 80/140/46 120/179/46 119/175/46
f 75/159/46 77/155/46 117/170/46 116/180/46
f 111/167/45 112/166/45 124/172/45 123/176/45
