# Blender v2.91.0 Alpha OBJ File: 'untitled.blend'
# www.blender.org
mtllib TestStairs.mtl
o Cube.001_Cube.026
v -0.055896 -0.135626 0.314054
v -0.055896 0.566255 -1.575213
v -0.055896 -0.291644 0.256092
v -0.055896 0.410237 -1.633175
v 0.055896 -0.135626 0.314054
v 0.055896 0.566255 -1.575213
v 0.055896 -0.291644 0.256092
v 0.055896 0.410237 -1.633175
vt 0.375000 0.000000
vt 0.625000 0.000000
vt 0.625000 0.250000
vt 0.375000 0.250000
vt 0.625000 0.500000
vt 0.375000 0.500000
vt 0.625000 0.750000
vt 0.375000 0.750000
vt 0.625000 1.000000
vt 0.375000 1.000000
vt 0.125000 0.500000
vt 0.125000 0.750000
vt 0.875000 0.500000
vt 0.875000 0.750000
vn -1.0000 0.0000 0.0000
vn 0.0000 -0.9374 -0.3483
vn 1.0000 0.0000 0.0000
vn 0.0000 0.9374 0.3483
vn 0.0000 -0.3483 0.9374
vn 0.0000 0.3483 -0.9374
usemtl None
s off
f 1/1/1 2/2/1 4/3/1 3/4/1
f 3/4/2 4/3/2 8/5/2 7/6/2
f 7/6/3 8/5/3 6/7/3 5/8/3
f 5/8/4 6/7/4 2/9/4 1/10/4
f 3/11/5 7/6/5 5/8/5 1/12/5
f 8/5/6 4/13/6 2/14/6 6/7/6
o Cube_Cube.027
v -0.295899 -0.126626 0.125066
v -0.295899 -0.017960 0.233733
v -0.404565 -0.017960 0.125066
v -0.295899 0.017960 0.233733
v -0.295899 0.126626 0.125066
v -0.404565 0.017960 0.125066
v -0.295899 -0.126626 -0.125066
v -0.404565 -0.017960 -0.125066
v -0.295899 -0.017960 -0.233733
v -0.295899 0.126626 -0.125066
v -0.295899 0.017960 -0.233733
v -0.404565 0.017960 -0.125066
v 0.295899 -0.126626 0.125066
v 0.404565 -0.017960 0.125066
v 0.295899 -0.017960 0.233733
v 0.295899 0.126626 0.125066
v 0.295899 0.017960 0.233733
v 0.404565 0.017960 0.125066
v 0.295899 -0.126626 -0.125066
v 0.295899 -0.017960 -0.233733
v 0.404565 -0.017960 -0.125066
v 0.295899 0.126626 -0.125066
v 0.404565 0.017960 -0.125066
v 0.295899 0.017960 -0.233733
v -0.295899 0.121569 -0.547600
v -0.295899 0.230235 -0.438934
v -0.404565 0.230235 -0.547600
v -0.295899 0.266154 -0.438934
v -0.295899 0.374821 -0.547600
v -0.404565 0.266154 -0.547600
v -0.295899 0.121569 -0.797733
v -0.404565 0.230235 -0.797733
v -0.295899 0.230235 -0.906400
v -0.295899 0.374821 -0.797733
v -0.295899 0.266154 -0.906400
v -0.404565 0.266154 -0.797733
v 0.295899 0.121569 -0.547600
v 0.404565 0.230235 -0.547600
v 0.295899 0.230235 -0.438934
v 0.295899 0.374821 -0.547600
v 0.295899 0.266154 -0.438934
v 0.404565 0.266154 -0.547600
v 0.295899 0.121569 -0.797733
v 0.295899 0.230235 -0.906400
v 0.404565 0.230235 -0.797733
v 0.295899 0.374821 -0.797733
v 0.404565 0.266154 -0.797733
v 0.295899 0.266154 -0.906400
v -0.295899 0.389229 -1.220267
v -0.295899 0.497896 -1.111601
v -0.404565 0.497896 -1.220267
v -0.295899 0.533815 -1.111601
v -0.295899 0.642481 -1.220267
v -0.404565 0.533815 -1.220267
v -0.295899 0.389229 -1.470400
v -0.404565 0.497896 -1.470400
v -0.295899 0.497896 -1.579066
v -0.295899 0.642481 -1.470400
v -0.295899 0.533815 -1.579066
v -0.404565 0.533815 -1.470400
v 0.295899 0.389229 -1.220267
v 0.404565 0.497896 -1.220267
v 0.295899 0.497896 -1.111601
v 0.295899 0.642481 -1.220267
v 0.295899 0.533815 -1.111601
v 0.404565 0.533815 -1.220267
v 0.295899 0.389229 -1.470400
v 0.295899 0.497896 -1.579066
v 0.404565 0.497896 -1.470400
v 0.295899 0.642481 -1.470400
v 0.404565 0.533815 -1.470400
v 0.295899 0.533815 -1.579066
vt 0.482271 0.783575
vt 0.517729 0.783575
vt 0.517729 0.966425
vt 0.482271 0.966425
vt 0.482271 0.558115
vt 0.517729 0.558115
vt 0.517729 0.691885
vt 0.482271 0.691885
vt 0.158575 0.558115
vt 0.341425 0.558115
vt 0.341425 0.691885
vt 0.158575 0.691885
vt 0.658575 0.558115
vt 0.841425 0.558115
vt 0.841425 0.691885
vt 0.658575 0.691885
vt 0.482271 0.058115
vt 0.517729 0.058115
vt 0.517729 0.191885
vt 0.482271 0.191885
vt 0.482271 0.283575
vt 0.517729 0.283575
vt 0.517729 0.466425
vt 0.482271 0.466425
vt 0.482271 0.783575
vt 0.517729 0.783575
vt 0.517729 0.966425
vt 0.482271 0.966425
vt 0.482271 0.558115
vt 0.517729 0.558115
vt 0.517729 0.691885
vt 0.482271 0.691885
vt 0.158575 0.558115
vt 0.341425 0.558115
vt 0.341425 0.691885
vt 0.158575 0.691885
vt 0.658575 0.558115
vt 0.841425 0.558115
vt 0.841425 0.691885
vt 0.658575 0.691885
vt 0.482271 0.058115
vt 0.517729 0.058115
vt 0.517729 0.191885
vt 0.482271 0.191885
vt 0.482271 0.283575
vt 0.517729 0.283575
vt 0.517729 0.466425
vt 0.482271 0.466425
vt 0.482271 0.783575
vt 0.517729 0.783575
vt 0.517729 0.966425
vt 0.482271 0.966425
vt 0.482271 0.558115
vt 0.517729 0.558115
vt 0.517729 0.691885
vt 0.482271 0.691885
vt 0.658575 0.558115
vt 0.841425 0.558115
vt 0.841425 0.691885
vt 0.658575 0.691885
vt 0.482271 0.058115
vt 0.517729 0.058115
vt 0.517729 0.191885
vt 0.482271 0.191885
vt 0.482271 0.283575
vt 0.517729 0.283575
vt 0.517729 0.466425
vt 0.482271 0.466425
vt 0.158575 0.691885
vt 0.158575 0.750000
vt 0.125000 0.691885
vt 0.625000 0.966425
vt 0.517729 1.000000
vt 0.158575 0.558115
vt 0.125000 0.558115
vt 0.158575 0.500000
vt 0.625000 0.283575
vt 0.625000 0.283575
vt 0.517729 0.250000
vt 0.341425 0.691885
vt 0.375000 0.691885
vt 0.341425 0.750000
vt 0.625000 0.783575
vt 0.625000 0.783575
vt 0.517729 0.750000
vt 0.341425 0.558115
vt 0.341425 0.500000
vt 0.375000 0.558115
vt 0.625000 0.558115
vt 0.625000 0.558115
vt 0.517729 0.500000
vt 0.158575 0.750000
vt 0.125000 0.691885
vt 0.625000 0.966425
vt 0.517729 1.000000
vt 0.125000 0.558115
vt 0.158575 0.500000
vt 0.625000 0.283575
vt 0.625000 0.283575
vt 0.517729 0.250000
vt 0.375000 0.691885
vt 0.341425 0.750000
vt 0.625000 0.783575
vt 0.625000 0.783575
vt 0.517729 0.750000
vt 0.341425 0.500000
vt 0.375000 0.558115
vt 0.625000 0.558115
vt 0.625000 0.558115
vt 0.517729 0.500000
vt 0.158575 0.750000
vt 0.125000 0.691885
vt 0.625000 0.966425
vt 0.517729 1.000000
vt 0.125000 0.558115
vt 0.158575 0.500000
vt 0.625000 0.283575
vt 0.625000 0.283575
vt 0.517729 0.250000
vt 0.375000 0.691885
vt 0.341425 0.750000
vt 0.625000 0.783575
vt 0.625000 0.783575
vt 0.517729 0.750000
vt 0.341425 0.500000
vt 0.375000 0.558115
vt 0.625000 0.558115
vt 0.625000 0.558115
vt 0.517729 0.500000
vt 0.482271 0.000000
vt 0.517729 0.000000
vt 0.625000 0.058115
vt 0.625000 0.191885
vt 0.625000 0.466425
vt 0.482271 0.000000
vt 0.517729 0.000000
vt 0.625000 0.058115
vt 0.625000 0.191885
vt 0.625000 0.466425
vt 0.482271 0.000000
vt 0.517729 0.000000
vt 0.625000 0.058115
vt 0.625000 0.191885
vt 0.625000 0.466425
vn 0.0000 0.0000 1.0000
vn 1.0000 0.0000 0.0000
vn 0.0000 -1.0000 0.0000
vn 0.0000 1.0000 0.0000
vn -1.0000 0.0000 0.0000
vn 0.0000 0.0000 -1.0000
vn -0.4606 -0.7588 0.4606
vn -0.4606 -0.4606 0.7588
vn -0.7588 -0.4606 0.4606
vn -0.4606 0.4606 0.7588
vn -0.4606 0.7588 0.4606
vn -0.7588 0.4606 0.4606
vn -0.4606 -0.7588 -0.4606
vn -0.7588 -0.4606 -0.4606
vn -0.4606 -0.4606 -0.7588
vn -0.4606 0.7588 -0.4606
vn -0.4606 0.4606 -0.7588
vn -0.7588 0.4606 -0.4606
vn 0.4606 -0.7588 0.4606
vn 0.7588 -0.4606 0.4606
vn 0.4606 -0.4606 0.7588
vn 0.4606 0.7588 0.4606
vn 0.4606 0.4606 0.7588
vn 0.7588 0.4606 0.4606
vn 0.4606 -0.7588 -0.4606
vn 0.4606 -0.4606 -0.7588
vn 0.7588 -0.4606 -0.4606
vn 0.4606 0.7588 -0.4606
vn 0.7588 0.4606 -0.4606
vn 0.4606 0.4606 -0.7588
usemtl None
s 1
f 23/15/7 25/16/7 12/17/7 10/18/7
f 29/19/8 31/20/8 26/21/8 22/22/8
f 39/23/9 51/24/9 45/25/9 33/26/9
f 30/27/10 18/28/10 13/29/10 24/30/10
f 11/31/11 14/32/11 20/33/11 16/34/11
f 17/35/12 19/36/12 32/37/12 28/38/12
f 47/39/7 49/40/7 36/41/7 34/42/7
f 53/43/8 55/44/8 50/45/8 46/46/8
f 63/47/9 75/48/9 69/49/9 57/50/9
f 54/51/10 42/52/10 37/53/10 48/54/10
f 35/55/11 38/56/11 44/57/11 40/58/11
f 41/59/12 43/60/12 56/61/12 52/62/12
f 71/63/7 73/64/7 60/65/7 58/66/7
f 77/67/8 79/68/8 74/69/8 70/70/8
f 78/71/10 66/72/10 61/73/10 72/74/10
f 59/75/11 62/76/11 68/77/11 64/78/11
f 65/79/12 67/80/12 80/81/12 76/82/12
f 9/83/13 10/84/14 11/85/15
f 12/17/16 13/86/17 14/87/18
f 15/88/19 16/89/20 17/90/21
f 18/91/22 19/92/23 20/93/24
f 21/94/25 22/95/26 23/96/27
f 24/97/28 25/98/29 26/99/30
f 27/100/31 28/101/32 29/102/33
f 30/103/34 31/104/35 32/105/36
f 33/26/13 34/106/14 35/107/15
f 36/41/16 37/108/17 38/109/18
f 39/23/19 40/110/20 41/111/21
f 42/112/22 43/113/23 44/114/24
f 45/25/25 46/115/26 47/116/27
f 48/117/28 49/118/29 50/119/30
f 51/24/31 52/120/32 53/121/33
f 54/122/34 55/123/35 56/124/36
f 57/50/13 58/125/14 59/126/15
f 60/65/16 61/127/17 62/128/18
f 63/47/19 64/129/20 65/130/21
f 66/131/22 67/132/23 68/133/24
f 69/49/25 70/134/26 71/135/27
f 72/136/28 73/137/29 74/138/30
f 75/48/31 76/139/32 77/140/33
f 78/141/34 79/142/35 80/143/36
f 15/88/19 9/83/13 11/85/15 16/89/20
f 10/144/14 12/145/16 14/32/18 11/31/15
f 13/146/17 18/147/22 20/33/24 14/32/18
f 19/36/23 17/35/21 16/34/20 20/33/24
f 27/100/31 15/88/19 17/90/21 28/101/32
f 18/91/22 30/148/34 32/37/36 19/36/23
f 31/20/35 29/19/33 28/38/32 32/37/36
f 21/94/25 27/100/31 29/19/33 22/22/26
f 30/27/34 24/30/28 26/21/30 31/20/35
f 25/16/29 23/15/27 22/22/26 26/21/30
f 9/83/13 21/94/25 23/96/27 10/84/14
f 24/97/28 13/86/17 12/17/16 25/16/29
f 39/23/19 33/26/13 35/107/15 40/110/20
f 34/149/14 36/150/16 38/56/18 35/55/15
f 37/151/17 42/152/22 44/57/24 38/56/18
f 43/60/23 41/59/21 40/58/20 44/57/24
f 51/24/31 39/23/19 41/111/21 52/120/32
f 42/112/22 54/153/34 56/61/36 43/60/23
f 55/44/35 53/43/33 52/62/32 56/61/36
f 45/25/25 51/24/31 53/43/33 46/46/26
f 54/51/34 48/54/28 50/45/30 55/44/35
f 49/40/29 47/39/27 46/46/26 50/45/30
f 33/26/13 45/25/25 47/116/27 34/106/14
f 48/117/28 37/108/17 36/41/16 49/40/29
f 63/47/19 57/50/13 59/126/15 64/129/20
f 58/154/14 60/155/16 62/76/18 59/75/15
f 61/156/17 66/157/22 68/77/24 62/76/18
f 67/80/23 65/79/21 64/78/20 68/77/24
f 75/48/31 63/47/19 65/130/21 76/139/32
f 66/131/22 78/158/34 80/81/36 67/80/23
f 79/68/35 77/67/33 76/82/32 80/81/36
f 69/49/25 75/48/31 77/67/33 70/70/26
f 78/71/34 72/74/28 74/69/30 79/68/35
f 73/64/29 71/63/27 70/70/26 74/69/30
f 57/50/13 69/49/25 71/135/27 58/125/14
f 72/136/28 61/127/17 60/65/16 73/64/29
f 15/88/9 27/100/9 21/94/9 9/83/9
